<svg width="14" height="14" viewBox="0 0 14 14" xmlns="http://www.w3.org/2000/svg" xmlns:xlink="http://www.w3.org/1999/xlink">
    <defs>
        <path id="a" d="M0 0h6.429v13.94H0z"/>
    </defs>
    <g fill="none" fill-rule="evenodd">
        <g>
            <mask id="b" fill="#fff">
                <use xlink:href="#a"/>
            </mask>
            <path d="M4.84 13.94H1.589A1.597 1.597 0 0 1 0 12.337V1.605C0 .719.711 0 1.589 0h3.25c.878 0 1.59.719 1.59 1.605v10.73c0 .887-.712 1.606-1.59 1.606" fill="#FFF" mask="url(#b)"/>
        </g>
        <path d="M12.411 14H9.337a1.597 1.597 0 0 1-1.589-1.605V7.47c0-.886.711-1.605 1.589-1.605h3.074c.878 0 1.589.719 1.589 1.605v4.925c0 .886-.711 1.605-1.589 1.605M12.411 4.682H9.337a1.597 1.597 0 0 1-1.589-1.605v-1.43c0-.886.711-1.604 1.589-1.604h3.074C13.29.043 14 .76 14 1.647v1.43c0 .886-.711 1.605-1.589 1.605" fill="#FFF"/>
    </g>
</svg>
