<svg xmlns="http://www.w3.org/2000/svg" width="54" height="15" viewBox="0 0 54 15">
    <g fill="none" fill-rule="evenodd">
        <g>
            <g>
                <g>
                    <g>
                        <g>
                            <g>
                                <path fill="#00A500" d="M7.378 3.489L4.258.343C3.82-.1 3.093-.109 2.662.343c-.418.437-.413 1.134.015 1.565l3.135 3.161c.433.437 1.135.437 1.567 0 .433-.436.433-1.144 0-1.58M10.513 11.392L7.378 8.23c-.433-.437-1.134-.437-1.567 0-.433.436-.433 1.144 0 1.58l3.135 3.161c.433.437 1.134.437 1.567 0 .433-.436.433-1.144 0-1.58M11.297 2.698L8.162 5.86c-.433.437-.433 1.145 0 1.58.433.438 1.135.438 1.568 0l3.135-3.16c.432-.437.432-1.144 0-1.58-.433-.437-1.135-.437-1.568 0M1.892 10.601l3.135-3.16c.433-.437.433-1.145 0-1.582-.433-.436-1.135-.436-1.567 0L.325 9.021c-.433.436-.433 1.144 0 1.58.433.437 1.134.437 1.567 0" transform="translate(-86.000000, -16.000000) translate(0.000000, 1.000000) translate(20.000000, 15.262484) translate(66.699946, 0.309091) translate(0.000000, 0.000109)"/>
                                <path fill="#00BE00" d="M3.46 7.44L.325 4.28c-.433-.437-.433-1.144 0-1.58.432-.437 1.134-.437 1.567 0l3.14 3.166c.43.433.43 1.136 0 1.57L3.46 9.02c.433-.437.433-1.144 0-1.58M8.946 9.811L7.373 8.225c-.43-.434-1.127-.434-1.557 0l-3.14 3.167c-.433.436-.433 1.144 0 1.58.433.437 1.135.437 1.568 0l3.134-3.16c.433-.438 1.135-.438 1.568 0M9.73 5.86l3.135 3.16c.433.437.433 1.145 0 1.581-.433.437-1.135.437-1.568 0l-3.14-3.167c-.43-.433-.43-1.135 0-1.569L9.73 4.28c-.433.436-.433 1.144 0 1.58M10.513.327c-.433-.436-1.134-.436-1.567 0L5.81 3.488c-.433.437-1.134.437-1.567 0l1.573 1.587c.43.433 1.126.433 1.556 0l3.14-3.167c.433-.437.433-1.144 0-1.58" transform="translate(-86.000000, -16.000000) translate(0.000000, 1.000000) translate(20.000000, 15.262484) translate(66.699946, 0.309091) translate(0.000000, 0.000109)"/>
                            </g>
                            <g>
                                <path fill="#000050" d="M15.308 2.472c.117 0 .213.096.213.214V5.68c0 .445.253.862.661 1.034.133.056.273.084.415.084.064 0 .129-.006.194-.018.482-.088.844-.495.88-.988l.002-.04V3.155c0-.378.305-.683.679-.683h.691c.118 0 .213.096.213.214v5.856c0 1.62-1.297 3.028-2.892 3.028-.887 0-1.717-.408-2.264-1.104-.079-.1-.05-.247.058-.313l.51-.378c.324-.2.73-.23 1.067-.054.145.076.323.164.529.165.907.005 1.49-.918 1.288-1.67-.304.118-.624.178-.955.178-.446 0-.888-.114-1.277-.33-.102-.056-.202-.12-.297-.19-.456-.34-.799-.824-.965-1.366-.08-.257-.12-.524-.12-.796V3.155c0-.378.304-.683.678-.683h.692zM9.84 2.346c.566 0 1.132.281 1.413.478v-.246c0-.06.048-.109.107-.109h1.273c.119 0 .215.097.215.217v5.358c0 .12-.096.217-.215.217H11.36c-.06 0-.107-.049-.107-.11v-.207c-.357.218-.759.481-1.428.478-1.686-.009-2.998-1.373-2.998-3.038 0-1.665 1.345-3.028 2.997-3.038h.016zM3.69.006c1.558 0 2.833 1.266 2.868 2.833.035 1.622-1.3 2.939-2.909 2.939H2.451c-.134 0-.243-.11-.243-.244V4.83c0-.382.307-.69.685-.69h.796c.737 0 1.342-.634 1.265-1.373-.068-.646-.612-1.151-1.27-1.151H1.598V7.57c0 .382-.307.69-.685.69H.216C.097 8.26 0 8.164 0 8.044V.696c0-.381.306-.69.685-.69H3.69zM9.84 3.93h-.014c-.79.005-1.433.657-1.433 1.454 0 .795.643 1.45 1.434 1.459h.013c.684 0 1.276-.491 1.413-1.17v-.578c-.136-.676-.728-1.165-1.413-1.165z" transform="translate(-86.000000, -16.000000) translate(0.000000, 1.000000) translate(20.000000, 15.262484) translate(66.699946, 0.309091) translate(0.000000, 0.000109) translate(16.434020, 2.503221)"/>
                                <path fill="#00BE00" d="M35.885 0c.12 0 .216.097.216.217v1.174c0 .12-.097.217-.216.217h-3.99v5.038h3.99c.12 0 .216.098.216.218v.71c0 .377-.303.682-.676.682h-4.93c-.118 0-.215-.097-.215-.217V.68c0-.376.303-.681.676-.681h4.93zm0 3.314c.12 0 .216.098.216.217v.711c0 .376-.303.681-.676.681h-2.706c-.118 0-.215-.097-.215-.217v-.74c0-.36.29-.652.647-.652h2.734zM27.522.005c-.07 0-.136.035-.176.093l-2.067 3.009c-.104.149-.323.147-.425-.004L22.858.102c-.04-.06-.106-.096-.178-.096h-1.368c-.135 0-.244.11-.244.246V8.01c0 .136.11.246.244.246H22c.355 0 .643-.29.643-.65V2.772l1.982 2.777c.213.307.665.307.879 0l1.981-2.778v5.24c0 .136.11.246.245.246h.687c.356 0 .644-.29.644-.65V.253c0-.136-.11-.247-.244-.247h-1.295z" transform="translate(-86.000000, -16.000000) translate(0.000000, 1.000000) translate(20.000000, 15.262484) translate(66.699946, 0.309091) translate(0.000000, 0.000109) translate(16.434020, 2.503221)"/>
                            </g>
                        </g>
                    </g>
                </g>
            </g>
        </g>
    </g>
</svg>
