<svg xmlns="http://www.w3.org/2000/svg" width="20" height="20" viewBox="0 0 20 20">
    <g fill="none" fill-rule="evenodd">
        <g fill="#647081">
            <g>
                <path d="M14.287 14.963c.165-.04.31-.122.436-.248.125-.125.208-.27.247-.436.04-.165.04-.33 0-.495-.04-.165-.119-.307-.238-.426l-5.86-5.861 5.86-5.86c.12-.12.199-.262.238-.427.04-.165.04-.332 0-.5-.04-.169-.122-.312-.247-.431-.126-.126-.273-.208-.441-.248-.169-.04-.334-.04-.496 0-.162.04-.302.119-.42.238L7.503 6.13 1.644.27C1.518.149 1.373.07 1.208.03 1.042-.009.878-.01.712.026.547.062.402.146.276.28.157.404.078.549.038.715c-.04.165-.04.33 0 .495.04.165.12.307.238.426l5.86 5.862-5.86 5.86c-.119.119-.2.26-.243.426-.042.165-.044.332-.004.5.04.169.122.312.247.431.126.126.271.208.436.248.165.04.33.04.496 0 .165-.04.31-.12.436-.238l5.86-5.86 5.861 5.86c.119.119.261.198.426.238.165.04.33.04.496 0z" transform="translate(-1880.000000, -24.000000) translate(1880.000000, 24.000000) translate(2.550911, 2.285404)"/>
            </g>
        </g>
    </g>
</svg>
