<svg xmlns="http://www.w3.org/2000/svg" width="32" height="20" viewBox="0 0 32 20">
    <g fill="none" fill-rule="evenodd">
        <g fill-rule="nonzero">
            <g>
                <g>
                    <g>
                        <g>
                            <path fill="#647081" d="M27.179 12.536l1.633-.515-.53-1.18c-.39.49-.78 1.122-1.103 1.695zm-.556-5.392L23.423 0 0 1.33l6.49 17.744 12.491-3.946c-.796-1.147-1.086-2.51-.166-3.174 1.028-.747 2.578.117 3.565 1.338.953-1.595 3.63-5.309 4.243-6.148z" transform="translate(-1815.000000, -1045.000000) translate(280.000000, 1032.000000) translate(1421.000000, 9.089629) translate(0.000000, 4.076139) translate(114.066310, 0.000000)"/>
                            <g fill="#FEFEFE">
                                <path d="M18.219 3.356c.978 0 1.773-.747 1.773-1.678C19.992.748 19.197 0 18.22 0c-.978 0-1.774.748-1.774 1.678 0 .922.796 1.678 1.774 1.678zm-1.45.723h2.9v7.601h-2.9V4.08zM15.334 6.297c.025.008.042 0 .042-.025V4.345c0-.025-.017-.05-.042-.067 0 0-.381-.249-1.542-.315-.058-.034-1.077-.042-1.35 0-4.228.34-4.385 3.406-4.385 3.539v.747c0 .092 0 3.224 4.384 3.498.431.033 1.269 0 1.351 0 1.012 0 1.708-.308 1.708-.308.025-.008.041-.033.041-.058V9.578c0-.025-.016-.033-.033-.016 0 0-.315.249-1.69.39-.39.042-.58.025-.722 0-1.956-.332-2.047-1.76-2.047-1.76 0-.026-.008-.067-.008-.084V7.56c0-.025 0-.067.008-.083 0 0 .132-1.537 2.047-1.703h.721c.837.108 1.517.523 1.517.523zM0 11.655c0 .025.017.042.041.042h2.827c.025 0 .041-.017.041-.042v-2.21c0-.024.017-.041.042-.041 0 0 4.517.324 4.517-2.708 0-2.401-2.835-2.659-3.763-2.617H.041c-.024 0-.041.017-.041.041v7.535zm2.86-3.937V5.732h.696s1.003.042 1.086.731c.016.05.016.39 0 .407-.133.806-1.003.848-1.003.848h-.78z" transform="translate(-1815.000000, -1045.000000) translate(280.000000, 1032.000000) translate(1421.000000, 9.089629) translate(0.000000, 4.076139) translate(114.066310, 0.000000) translate(4.475554, 1.806828)"/>
                            </g>
                            <path fill="#647081" d="M22.777 17.155c.232 0 .415 0 .713-.133 1.028-.54 4.501-9.039 8.165-11.655.024-.017.05-.042.066-.067.025-.033.025-.066.025-.066s0-.175-.539-.175c-3.257-.091-6.648 6.762-8.43 9.47-.025.034-.14 0-.14 0s-1.194-1.412-2.23-1.952c-.025-.008-.141-.05-.265-.041-.083 0-.564.1-.788.332-.265.283-.257.44-.257.781 0 .025.017.141.05.2.257.448 1.409 2.043 2.362 2.924.141.108.365.382 1.268.382z" transform="translate(-1815.000000, -1045.000000) translate(280.000000, 1032.000000) translate(1421.000000, 9.089629) translate(0.000000, 4.076139) translate(114.066310, 0.000000)"/>
                        </g>
                    </g>
                </g>
            </g>
        </g>
    </g>
</svg>
