<svg xmlns="http://www.w3.org/2000/svg" width="136" height="36" viewBox="0 0 136 36">
    <g fill="none" fill-rule="evenodd">
        <g>
            <g>
                <g>
                    <path fill="#00A500" d="M18.89 8.857L10.904.871C9.779-.254 7.916-.277 6.813.87c-1.07 1.11-1.057 2.878.038 3.973l8.027 8.026c1.107 1.108 2.905 1.108 4.012 0C20 11.762 20 9.965 18.89 8.857M26.917 28.923l-8.026-8.026c-1.11-1.109-2.905-1.109-4.013 0-1.109 1.107-1.109 2.905 0 4.012l8.025 8.026c1.109 1.11 2.905 1.11 4.014 0 1.107-1.107 1.107-2.904 0-4.012M28.923 6.85l-8.026 8.027c-1.109 1.108-1.109 2.905 0 4.012 1.108 1.109 2.905 1.109 4.013 0l8.026-8.025c1.108-1.108 1.108-2.906 0-4.013-1.108-1.109-2.905-1.109-4.013 0M4.844 26.916l8.027-8.026c1.108-1.109 1.108-2.905 0-4.014-1.108-1.107-2.905-1.107-4.013 0L.831 22.903c-1.108 1.108-1.108 2.905 0 4.013 1.109 1.108 2.905 1.108 4.013 0" transform="translate(-892.000000, -70.000000) translate(892.000000, 70.000000) translate(-0.000138, 0.000277)"/>
                    <path fill="#00BE00" d="M8.858 18.89L.83 10.864C-.277 9.755-.277 7.959.831 6.85c1.108-1.109 2.905-1.109 4.013 0l8.041 8.04c1.1 1.1 1.1 2.884 0 3.984l-4.027 4.028c1.108-1.108 1.108-2.905 0-4.013M22.903 24.91l-4.027-4.028c-1.1-1.1-2.885-1.1-3.985 0l-8.04 8.04c-1.108 1.109-1.108 2.905 0 4.014 1.109 1.108 2.905 1.108 4.014 0l8.025-8.026c1.109-1.109 2.905-1.109 4.013 0M24.91 14.877l8.026 8.026c1.109 1.108 1.109 2.905 0 4.012-1.108 1.109-2.905 1.109-4.012 0l-8.041-8.04c-1.1-1.1-1.1-2.883 0-3.984l4.027-4.027c-1.109 1.108-1.109 2.904 0 4.013M26.917.83c-1.109-1.107-2.905-1.107-4.014 0l-8.025 8.027c-1.109 1.109-2.905 1.109-4.014 0l4.028 4.027c1.1 1.1 2.883 1.1 3.985 0l8.04-8.04c1.108-1.108 1.107-2.905 0-4.013" transform="translate(-892.000000, -70.000000) translate(892.000000, 70.000000) translate(-0.000138, 0.000277)"/>
                </g>
                <g>
                    <path fill="#000050" d="M39.191 6.275c.301 0 .546.244.546.545v7.6c0 1.132.649 2.19 1.694 2.626.338.142.697.214 1.062.214.163 0 .329-.016.495-.046 1.236-.223 2.163-1.256 2.254-2.51.004-.066.007-.133.007-.2V8.01c0-.959.778-1.735 1.736-1.735h1.77c.301 0 .546.244.546.545v14.867c0 4.116-3.321 7.689-7.404 7.689-2.272 0-4.398-1.038-5.798-2.803-.201-.253-.127-.627.149-.796l1.305-.96c.829-.507 1.87-.583 2.733-.136.371.192.827.416 1.352.418 2.323.014 3.816-2.33 3.3-4.241-.779.3-1.598.453-2.445.453-1.143 0-2.273-.29-3.27-.837-.262-.142-.517-.306-.76-.485-1.168-.86-2.046-2.09-2.472-3.466-.203-.652-.306-1.331-.306-2.02V8.01c0-.959.778-1.735 1.736-1.735h1.77zm-13.998-.318c1.449 0 2.897.713 3.616 1.213v-.624c0-.152.124-.277.276-.277h3.259c.303 0 .549.246.549.55v13.604c0 .304-.246.55-.55.55h-3.258c-.152 0-.276-.123-.276-.276v-.528c-.912.553-1.942 1.222-3.654 1.214-4.318-.022-7.677-3.487-7.677-7.714s3.443-7.686 7.674-7.712h.04zM9.447.014c3.99.003 7.254 3.215 7.342 7.194.091 4.118-3.328 7.462-7.447 7.462H6.274c-.342 0-.62-.278-.62-.62v-1.785c0-.968.785-1.753 1.754-1.753h2.036c1.887 0 3.436-1.608 3.238-3.483-.172-1.642-1.564-2.925-3.25-2.925l-5.34.001v15.116c0 .968-.786 1.753-1.755 1.753H.554c-.306 0-.554-.248-.554-.554V1.766C0 .8.785.013 1.753.013l7.694.001zm15.746 9.964h-.037c-2.023.013-3.668 1.669-3.668 3.691 0 2.02 1.647 3.681 3.67 3.704h.035c1.752 0 3.267-1.247 3.616-2.969v-1.469c-.348-1.716-1.864-2.957-3.616-2.957z" transform="translate(-892.000000, -70.000000) translate(892.000000, 70.000000) translate(42.074769, 6.355754)"/>
                    <path fill="#00BE00" d="M91.874 0c.305 0 .552.246.552.551v2.98c0 .305-.247.553-.552.553H81.657v12.79h10.217c.305 0 .552.248.552.553v1.803c0 .956-.774 1.731-1.73 1.731h-12.62c-.305 0-.552-.247-.552-.552V1.73C77.524.775 78.3 0 79.254 0h12.62zm0 8.414c.306 0 .552.248.552.551v1.806c0 .954-.774 1.729-1.73 1.729H83.77c-.305 0-.552-.247-.552-.551v-1.88c0-.914.74-1.655 1.656-1.655h7zM70.463.014c-.18 0-.35.088-.452.236l-5.29 7.638c-.267.378-.829.374-1.09-.009L58.524.26c-.102-.153-.273-.244-.456-.244L54.564.014c-.346 0-.625.28-.625.625v19.697c0 .345.28.625.625.625h1.76c.91 0 1.648-.737 1.648-1.648V7.035l5.073 7.05c.546.781 1.704.781 2.25 0l5.073-7.052v13.303c0 .345.281.625.626.625h1.76c.91 0 1.65-.737 1.65-1.648V.639c0-.346-.281-.625-.627-.625h-3.314z" transform="translate(-892.000000, -70.000000) translate(892.000000, 70.000000) translate(42.074769, 6.355754)"/>
                </g>
            </g>
        </g>
    </g>
</svg>
