<svg width="84" height="84" viewBox="0 0 84 84" fill="none" xmlns="http://www.w3.org/2000/svg">
<g filter="url(#filter0_d_67_4245)">
<rect x="22" y="13" width="40" height="40" rx="10" fill="url(#paint0_linear_67_4245)"/>
</g>
<path fill-rule="evenodd" clip-rule="evenodd" d="M45.6964 28.708C45.6923 30.751 44.043 32.4038 42.0029 32.409C39.9599 32.4142 38.2967 30.7469 38.2996 28.697C38.3019 26.6442 39.9605 24.9943 42.0145 25.0001C44.054 25.0064 45.7004 26.6645 45.6964 28.708ZM30.7237 33.632L30.7237 33.632C30.693 33.7388 30.6623 33.8456 30.6271 33.9501C30.6271 34.7599 30.6271 35.5698 30.6283 36.3803C30.6324 36.3908 30.6371 36.4012 30.6418 36.4117L30.6418 36.4117C30.6516 36.4336 30.6615 36.4557 30.6666 36.4788C30.8538 37.3113 31.4695 37.8789 32.3205 37.9548C32.6228 37.9817 32.9279 37.9788 33.2329 37.976H33.2329H33.2329H33.233H33.233C33.362 37.9747 33.491 37.9735 33.6197 37.9745C33.7794 37.9762 33.9393 37.9758 34.1023 37.9754H34.1023H34.1023H34.1023H34.1026L34.1034 37.9754C34.1738 37.9753 34.2448 37.9751 34.3165 37.9751C34.4035 35.6156 35.4157 33.7912 37.3682 32.4735C36.8946 31.9309 36.3178 31.5761 35.6151 31.5279C34.8313 31.474 34.04 31.4665 33.2551 31.503C32.233 31.5511 31.4585 32.0619 30.9709 32.9581C30.8576 33.166 30.7907 33.399 30.7237 33.632ZM41.0945 41.6718C41.3957 41.6716 41.697 41.6714 41.9983 41.6714C42.2898 41.6714 42.5813 41.672 42.8728 41.6726C43.5141 41.6738 44.1554 41.6751 44.7966 41.6703C46.072 41.6604 47.1961 40.7821 47.4645 39.5386C47.6413 38.72 47.6066 37.8823 47.4593 37.0603C47.115 35.1385 45.4343 33.5668 43.4916 33.3894C42.7687 33.3235 42.038 33.3323 41.3096 33.341C41.1992 33.3424 41.0888 33.3437 40.9785 33.3448C38.9639 33.3633 37.1679 34.7599 36.6172 36.7014C36.4369 37.3357 36.44 37.9803 36.4431 38.6264C36.4434 38.6949 36.4437 38.7634 36.4439 38.8319C36.4468 40.4465 37.6694 41.668 39.2869 41.6714C39.8894 41.6726 40.4919 41.6722 41.0945 41.6718ZM46.658 32.481C48.6036 33.8016 49.6083 35.6231 49.6952 37.96C49.9048 37.96 50.1136 37.9639 50.3216 37.9678H50.3216H50.3217H50.3217H50.3217C50.783 37.9765 51.2405 37.9851 51.6947 37.9507C52.689 37.8748 53.376 37.0869 53.3835 36.088C53.3881 35.459 53.3922 34.83 53.3818 34.2016C53.3597 32.8282 52.2791 31.6293 50.9109 31.5221C50.1422 31.4618 49.3654 31.478 48.5932 31.5024C47.8708 31.525 47.2557 31.8328 46.7525 32.3546C46.7263 32.3816 46.7047 32.4133 46.6839 32.4438L46.6838 32.4439C46.6752 32.4566 46.6667 32.4691 46.658 32.481ZM37.1027 27.777C37.1027 29.3092 35.865 30.5521 34.3356 30.5545C32.8017 30.5574 31.5425 29.2964 31.5506 27.7659C31.5582 26.2372 32.8057 24.9989 34.3351 25.0001C35.865 25.0012 37.1027 26.243 37.1027 27.777ZM52.4611 27.7683C52.4542 26.2401 51.2066 24.9995 49.6784 25.0001C48.1473 25.0006 46.9102 26.2395 46.9084 27.7746C46.9073 29.3069 48.1444 30.551 49.6738 30.5544C51.2083 30.5579 52.4687 29.2982 52.4611 27.7683Z" fill="url(#paint1_linear_67_4245)"/>
<defs>
<filter id="filter0_d_67_4245" x="0" y="0" width="84" height="84" filterUnits="userSpaceOnUse" color-interpolation-filters="sRGB">
<feFlood flood-opacity="0" result="BackgroundImageFix"/>
<feColorMatrix in="SourceAlpha" type="matrix" values="0 0 0 0 0 0 0 0 0 0 0 0 0 0 0 0 0 0 127 0" result="hardAlpha"/>
<feOffset dy="9"/>
<feGaussianBlur stdDeviation="11"/>
<feComposite in2="hardAlpha" operator="out"/>
<feColorMatrix type="matrix" values="0 0 0 0 0.364706 0 0 0 0 0.890196 0 0 0 0 0.207843 0 0 0 0.47 0"/>
<feBlend mode="normal" in2="BackgroundImageFix" result="effect1_dropShadow_67_4245"/>
<feBlend mode="normal" in="SourceGraphic" in2="effect1_dropShadow_67_4245" result="shape"/>
</filter>
<linearGradient id="paint0_linear_67_4245" x1="4.22222" y1="-10.3333" x2="59.2222" y2="58" gradientUnits="userSpaceOnUse">
<stop stop-color="#78FF91"/>
<stop offset="1" stop-color="#2CB217"/>
</linearGradient>
<linearGradient id="paint1_linear_67_4245" x1="42" y1="31.6667" x2="42" y2="50.5556" gradientUnits="userSpaceOnUse">
<stop stop-color="white"/>
<stop offset="1" stop-color="#67F78E"/>
</linearGradient>
</defs>
</svg>
