<svg width="84" height="84" viewBox="0 0 84 84" fill="none" xmlns="http://www.w3.org/2000/svg">
<g filter="url(#filter0_d_67_4287)">
<rect x="22" y="13" width="40" height="40" rx="10" fill="url(#paint0_linear_67_4287)"/>
</g>
<path fill-rule="evenodd" clip-rule="evenodd" d="M48.9809 27.604C49.9876 27.6082 50.7956 26.813 50.7956 25.8063C50.7956 24.808 50.0003 24.0085 49.0063 24.0001C48.0038 23.9916 47.1916 24.7995 47.1916 25.802C47.1916 26.7961 47.9869 27.5998 48.9809 27.604ZM50.419 28.6485C50.3965 28.4844 50.3738 28.3184 50.3557 28.1496C49.2432 28.6784 48.2068 28.6488 47.3016 27.8874C46.1849 26.9525 46.0453 25.7639 46.6248 24.4568C45.7027 24.2792 44.7848 24.2411 43.8626 24.2326C42.4752 24.22 41.092 24.22 39.7045 24.2326C38.7401 24.2411 37.7757 24.2665 36.8324 24.4864C35.0346 24.9094 33.8587 26.005 33.3342 27.7774C33.0465 28.7587 33.0254 29.7782 33.0127 30.7891C32.9958 32.2739 32.9958 33.7586 33.0127 35.2433C33.0211 36.157 33.0508 37.0707 33.2623 37.9674C33.681 39.744 34.7639 40.92 36.5151 41.4529C37.5007 41.7533 38.5244 41.7744 39.5438 41.7871C41.037 41.804 42.5259 41.804 44.0191 41.7871C44.9328 41.7786 45.8465 41.7448 46.7432 41.5375C48.3887 41.1568 49.5223 40.1713 50.1272 38.6019C50.4022 37.8955 50.5037 37.1426 50.5122 36.3896C50.5333 34.1351 50.5291 31.8847 50.5122 29.6343C50.5093 29.3083 50.4647 28.9822 50.419 28.6485ZM45.4616 33.6021C45.0089 34.4227 44.2433 34.7738 43.2831 34.7696C42.3271 34.6892 41.5996 34.2281 41.185 33.3187C40.9905 32.8787 40.669 32.6123 40.1868 32.6038C39.6918 32.5953 39.3619 32.8576 39.1504 33.2975C38.8314 33.9618 38.5047 34.6236 38.1783 35.2848C38.0849 35.4741 37.9915 35.6632 37.8983 35.8524C37.7376 36.1781 37.4373 36.322 37.12 36.2374C36.7139 36.1274 36.4855 35.7086 36.6674 35.3279C36.7369 35.182 36.8061 35.036 36.8752 34.8901C37.2694 34.0585 37.663 33.2279 38.1056 32.4219C38.554 31.6055 39.3111 31.2291 40.2333 31.2587C41.2146 31.2883 41.9422 31.7705 42.361 32.6672C42.5217 33.0099 42.7332 33.2764 43.1097 33.3821C43.6384 33.5302 44.1333 33.3017 44.3871 32.7857C44.6029 32.3521 44.8154 31.9164 45.028 31.4807C45.2405 31.045 45.4531 30.6093 45.6688 30.1758C45.8296 29.8458 46.1299 29.702 46.4471 29.7866C46.8532 29.8966 47.0816 30.3154 46.8998 30.6961C46.8303 30.842 46.7611 30.988 46.6919 31.1339C46.2978 31.9655 45.9042 32.796 45.4616 33.6021Z" fill="url(#paint1_linear_67_4287)"/>
<defs>
<filter id="filter0_d_67_4287" x="0" y="0" width="84" height="84" filterUnits="userSpaceOnUse" color-interpolation-filters="sRGB">
<feFlood flood-opacity="0" result="BackgroundImageFix"/>
<feColorMatrix in="SourceAlpha" type="matrix" values="0 0 0 0 0 0 0 0 0 0 0 0 0 0 0 0 0 0 127 0" result="hardAlpha"/>
<feOffset dy="9"/>
<feGaussianBlur stdDeviation="11"/>
<feComposite in2="hardAlpha" operator="out"/>
<feColorMatrix type="matrix" values="0 0 0 0 0.215686 0 0 0 0 0.454902 0 0 0 0 0.984314 0 0 0 0.47 0"/>
<feBlend mode="normal" in2="BackgroundImageFix" result="effect1_dropShadow_67_4287"/>
<feBlend mode="normal" in="SourceGraphic" in2="effect1_dropShadow_67_4287" result="shape"/>
</filter>
<linearGradient id="paint0_linear_67_4287" x1="4.22222" y1="-10.3333" x2="59.2222" y2="58" gradientUnits="userSpaceOnUse">
<stop stop-color="#A5DEFF"/>
<stop offset="1" stop-color="#3774FB"/>
</linearGradient>
<linearGradient id="paint1_linear_67_4287" x1="41.8918" y1="31.2629" x2="41.8918" y2="51.841" gradientUnits="userSpaceOnUse">
<stop stop-color="white"/>
<stop offset="1" stop-color="#3774FB"/>
</linearGradient>
</defs>
</svg>
