<svg width="84" height="84" viewBox="0 0 84 84" fill="none" xmlns="http://www.w3.org/2000/svg">
<g filter="url(#filter0_d_67_4266)">
<rect x="22" y="13" width="40" height="40" rx="10" fill="url(#paint0_linear_67_4266)"/>
</g>
<path d="M42.0167 23C47.6045 23.0141 52.0466 27.5631 51.9996 33.051C51.9527 38.6563 47.4214 43.0833 41.8476 42.9988C36.3396 42.919 31.9304 38.3888 32.0008 32.882C32.0713 27.3941 36.5274 23 42.0167 23ZM38.7203 36.9241C38.7532 36.8959 38.7954 36.863 38.833 36.8255C40.1807 35.4781 41.5283 34.1355 42.8713 32.7788C42.9464 32.7036 42.9887 32.5628 42.9887 32.4501C42.9934 30.3892 42.9934 28.3283 42.9934 26.2674C42.9934 26.1876 42.9934 26.1031 42.9934 26.0233C42.6459 26.0233 42.336 26.0233 42.0026 26.0233C42.0026 26.1266 42.0026 26.2158 42.0026 26.3097C42.0026 28.2157 42.0026 30.1216 42.0073 32.0229C42.0073 32.1826 41.9603 32.2952 41.8476 32.4126C40.6314 33.6238 39.4153 34.8397 38.2038 36.0556C38.1428 36.1166 38.0864 36.1776 38.0301 36.2386C38.2601 36.4687 38.4855 36.694 38.7203 36.9241Z" fill="url(#paint1_linear_67_4266)"/>
<defs>
<filter id="filter0_d_67_4266" x="0" y="0" width="84" height="84" filterUnits="userSpaceOnUse" color-interpolation-filters="sRGB">
<feFlood flood-opacity="0" result="BackgroundImageFix"/>
<feColorMatrix in="SourceAlpha" type="matrix" values="0 0 0 0 0 0 0 0 0 0 0 0 0 0 0 0 0 0 127 0" result="hardAlpha"/>
<feOffset dy="9"/>
<feGaussianBlur stdDeviation="11"/>
<feComposite in2="hardAlpha" operator="out"/>
<feColorMatrix type="matrix" values="0 0 0 0 1 0 0 0 0 0.796078 0 0 0 0 0.223529 0 0 0 0.47 0"/>
<feBlend mode="normal" in2="BackgroundImageFix" result="effect1_dropShadow_67_4266"/>
<feBlend mode="normal" in="SourceGraphic" in2="effect1_dropShadow_67_4266" result="shape"/>
</filter>
<linearGradient id="paint0_linear_67_4266" x1="4.22222" y1="-10.3333" x2="59.2222" y2="58" gradientUnits="userSpaceOnUse">
<stop stop-color="#FFE8A6"/>
<stop offset="1" stop-color="#EAB72A"/>
</linearGradient>
<linearGradient id="paint1_linear_67_4266" x1="41.9932" y1="30.9967" x2="41.9932" y2="53.6538" gradientUnits="userSpaceOnUse">
<stop stop-color="white"/>
<stop offset="1" stop-color="#FFCB39"/>
</linearGradient>
</defs>
</svg>
