<svg width="17" height="17" xmlns="http://www.w3.org/2000/svg">
    <path d="M8.717 16.233a.933.933 0 0 0 .69-.29.958.958 0 0 0 .286-.696V9.231l6.038-.001a.93.93 0 0 0 .686-.295.966.966 0 0 0 .29-.702.95.95 0 0 0-.29-.696.938.938 0 0 0-.686-.29l-6.039.002v-6.03a.963.963 0 0 0-.284-.69.925.925 0 0 0-.691-.296.953.953 0 0 0-.707.295.955.955 0 0 0-.29.691v6.03l-6.027-.002a.955.955 0 0 0-.692.29.941.941 0 0 0-.294.696c0 .271.098.505.294.702a.946.946 0 0 0 .692.295H7.72v6.017a.95.95 0 0 0 .29.697c.193.193.429.29.707.29z" fill="#FFF" fill-rule="nonzero"/>
</svg>
