<svg width="20" height="18" viewBox="0 0 20 18" xmlns="http://www.w3.org/2000/svg" xmlns:xlink="http://www.w3.org/1999/xlink">
    <defs>
        <path id="a" d="M0 0h20v18H0z"/>
    </defs>
    <g fill="none" fill-rule="evenodd">
        <g>
            <mask id="b" fill="#fff">
                <use xlink:href="#a"/>
            </mask>
            <path d="M19.91 3.638C19.477 1.514 17.726-.006 15.635 0 11.88.01 8.125.004 4.37.002c-.785 0-1.525.18-2.194.61C.74 1.53.028 2.885.008 4.626-.008 6.067.004 7.51.007 8.95c0 .229.004.46.036.687.27 1.907 1.268 3.198 3.03 3.827.153.055.195.123.194.284-.006 1.373-.004 2.746-.004 4.12v.014c0 .1.111.154.185.091h.001c1.63-1.39 3.261-2.779 4.888-4.173a.548.548 0 0 1 .388-.139c2.265.004 4.53.003 6.795.002.208 0 .419.009.624-.022 1.75-.264 2.951-1.26 3.58-2.975.135-.368.186-.769.276-1.155V4.154c-.03-.172-.056-.345-.09-.516" fill="#39A7FF" mask="url(#b)"/>
        </g>
        <path d="M4.19 8.963a2.253 2.253 0 0 1-.778-.418l.279-.634c.22.175.453.304.697.384.244.081.51.122.795.122.316 0 .559-.057.73-.172a.549.549 0 0 0 .256-.482.452.452 0 0 0-.237-.412c-.158-.094-.42-.184-.788-.27a4.536 4.536 0 0 1-.928-.296 1.317 1.317 0 0 1-.538-.432c-.121-.175-.182-.397-.182-.667 0-.279.074-.528.22-.749.148-.22.355-.392.624-.515.268-.124.577-.186.927-.186.32 0 .625.05.915.152.29.101.528.24.714.415l-.28.633c-.406-.337-.856-.505-1.349-.505-.294 0-.526.062-.697.185a.601.601 0 0 0-.256.516c0 .184.075.326.227.425.151.099.408.19.772.276.385.09.697.19.937.3.24.11.424.251.552.422.127.17.191.386.191.647 0 .283-.072.532-.217.745a1.376 1.376 0 0 1-.63.492 2.507 2.507 0 0 1-.97.172c-.35 0-.679-.05-.986-.148M11.573 4.297h.656V9.05h-.74V5.908l-1.207 2.374h-.558l-1.213-2.34.007 3.109h-.74V4.297h.662l1.57 3.108zM13.786 8.963a2.253 2.253 0 0 1-.779-.418l.279-.634c.22.175.453.304.697.384.245.081.51.122.795.122.316 0 .56-.057.73-.172a.549.549 0 0 0 .256-.482.452.452 0 0 0-.236-.412c-.158-.094-.421-.184-.789-.27a4.536 4.536 0 0 1-.927-.296 1.317 1.317 0 0 1-.539-.432c-.121-.175-.182-.397-.182-.667 0-.279.074-.528.221-.749.147-.22.355-.392.623-.515.268-.124.577-.186.928-.186.32 0 .624.05.914.152.29.101.528.24.714.415l-.279.633c-.407-.337-.856-.505-1.35-.505-.294 0-.526.062-.697.185a.601.601 0 0 0-.256.516c0 .184.076.326.227.425.151.099.409.19.772.276.385.09.697.19.937.3.24.11.424.251.552.422.127.17.191.386.191.647 0 .283-.072.532-.217.745a1.376 1.376 0 0 1-.63.492 2.507 2.507 0 0 1-.97.172c-.35 0-.678-.05-.985-.148" stroke="#FFF" stroke-width=".25" fill="snow"/>
    </g>
</svg>
